<?xml version="1.0" standalone="no"?>
<!DOCTYPE svg PUBLIC "-//W3C//DTD SVG 20010904//EN"
 "http://www.w3.org/TR/2001/REC-SVG-20010904/DTD/svg10.dtd">
<svg version="1.0" xmlns="http://www.w3.org/2000/svg"
 width="494.000000pt" height="494.000000pt" viewBox="0 0 494.000000 494.000000"
 preserveAspectRatio="xMidYMid meet">
<metadata>
Created by potrace 1.11, written by Peter Selinger 2001-2013
</metadata>
<g transform="translate(0.000000,494.000000) scale(0.100000,-0.100000)"
fill="#000000" stroke="none">
<path d="M40 4342 c-14 -2 -16 -43 -16 -322 l0 -320 61 -1 c75 0 1756 0 1845
0 l65 1 -2 312 c-2 172 -4 317 -6 322 -3 9 -1903 17 -1947 8z"/>
<path d="M2417 4055 c1 -159 2 -298 2 -307 1 -15 42 -17 539 -17 555 0 593 -2
702 -27 36 -9 72 -17 81 -19 33 -7 120 -58 163 -96 43 -38 98 -131 112 -189 4
-14 9 -74 11 -135 8 -178 -29 -292 -121 -378 -39 -36 -143 -94 -182 -102 -10
-2 -19 -4 -19 -5 0 -2 -33 -9 -124 -23 -65 -11 -210 -14 -623 -13 l-538 1 -1
-50 c-1 -64 -1 -577 0 -590 1 -7 141 -10 404 -10 456 0 476 -2 627 -76 67 -33
102 -60 170 -128 105 -104 152 -180 200 -321 45 -133 102 -295 145 -415 26
-71 48 -134 49 -140 2 -5 6 -17 9 -25 3 -8 37 -103 74 -210 l68 -195 377 -3
377 -2 -9 27 c-4 16 -27 80 -50 143 -23 63 -52 144 -64 180 -13 36 -35 95 -49
133 -15 37 -24 67 -20 67 3 0 1 6 -5 13 -6 7 -25 53 -42 103 -17 49 -37 105
-45 124 -17 45 -27 73 -31 85 -1 6 -21 60 -44 120 -22 61 -43 117 -45 126 -2
9 -25 66 -53 127 -65 146 -148 269 -249 369 l-83 82 60 28 c33 15 60 31 60 35
0 4 5 8 11 8 5 0 43 24 83 54 168 124 297 302 355 490 40 128 50 207 47 371
-2 89 -9 169 -20 220 -23 102 -22 97 -30 120 -5 11 -17 45 -28 75 -29 77 -92
190 -140 252 -46 60 -165 178 -179 178 -5 0 -12 7 -15 15 -4 8 -11 15 -17 15
-5 0 -24 10 -41 23 -34 25 -117 67 -181 90 -22 9 -49 19 -60 23 -11 4 -23 7
-27 6 -4 -1 -19 3 -33 8 -27 10 -67 19 -125 26 -19 3 -51 7 -70 9 -83 12 -187
14 -760 17 l-605 3 2 -290z"/>
<path d="M470 2743 c0 -5 -94 -8 -215 -7 -118 0 -216 -2 -217 -5 0 -3 -2 -146
-3 -317 l-2 -311 34 -1 c19 -1 38 -4 43 -7 5 -3 11 -2 14 3 4 7 47 7 113 -1
17 -2 37 -1 43 3 7 4 27 4 46 0 19 -4 36 -5 38 -1 3 4 26 5 53 3 26 -2 60 -3
76 -3 33 1 52 1 72 1 8 -1 40 -1 70 -1 30 0 62 0 70 1 8 0 21 0 28 0 6 1 41 1
77 1 36 -1 72 0 80 0 8 0 34 -1 58 -3 24 -2 48 -1 53 3 6 3 26 3 45 -1 19 -4
36 -5 38 -1 4 7 50 6 113 -2 17 -2 37 -1 43 3 7 4 27 4 46 0 19 -4 36 -5 38
-1 3 4 26 5 53 3 26 -2 60 -3 76 -3 33 1 52 1 72 1 8 -1 40 -1 70 -1 30 0 62
0 70 1 8 0 21 0 28 0 23 1 152 1 172 0 47 -2 62 -2 90 -1 l30 1 -1 317 -1 318
-54 0 c-30 0 -60 4 -68 9 -11 7 -12 6 -6 -5 8 -12 6 -12 -8 0 -9 7 -17 9 -17
5 0 -11 -190 -12 -207 -1 -6 4 -14 3 -17 -1 -7 -11 -46 -9 -65 2 -11 7 -12 6
-6 -5 8 -12 6 -12 -8 0 -9 7 -17 9 -17 5 0 -11 -190 -12 -207 -1 -6 4 -14 4
-16 0 -6 -10 -309 -9 -325 1 -7 4 -12 3 -12 -1 0 -11 -191 -10 -209 1 -11 7
-12 6 -6 -5 8 -12 6 -12 -8 0 -9 7 -17 9 -17 5 0 -12 -191 -11 -209 0 -11 7
-12 6 -6 -5 8 -12 6 -12 -8 0 -9 7 -17 9 -17 4z"/>
<path d="M43 1217 c-3 -5 -3 -11 0 -14 3 -3 2 -15 -3 -28 -5 -13 -6 -26 -3
-29 5 -5 6 -79 1 -121 -1 -5 2 -20 6 -32 5 -15 3 -23 -4 -23 -6 0 -9 -4 -5
-10 5 -8 8 -129 3 -170 0 -8 2 -25 6 -37 4 -13 3 -23 -2 -23 -6 0 -8 -8 -6
-17 3 -10 6 -45 7 -78 1 -33 5 -59 10 -57 4 1 441 2 972 2 l965 0 0 323 0 322
-971 0 c-534 0 -973 -3 -976 -8z"/>
</g>
</svg>
